<?xml version="1.0" encoding="UTF-8" standalone="no"?>
<svg width="13px" height="13px" viewBox="0 0 21 20" version="1.1" xmlns="http://www.w3.org/2000/svg" xmlns:xlink="http://www.w3.org/1999/xlink" xmlns:sketch="http://www.bohemiancoding.com/sketch/ns">
    <!-- Generator: Sketch 3.1.1 (8761) - http://www.bohemiancoding.com/sketch -->
    <title>Shape</title>
    <desc>Created with Sketch.</desc>
    <defs></defs>
    <g id="Page-1" stroke="none" stroke-width="1" fill="none" fill-rule="evenodd" sketch:type="MSPage">
        <path d="M8.7768516,19.02 L8.7768516,9.9047352 L5.0594524,9.9047352 C5.0594524,8.4447071 5.3222962,7.2115938 5.8479916,6.2053583 C6.3736871,5.1991227 7.349964,4.43952489 8.7768516,3.92654206 L8.7768516,0.02 C7.6128117,0.17784087 6.5332747,0.54284241 5.5382083,1.11501558 C4.5431419,1.68718874 3.6888996,2.40732692 2.9754558,3.27545171 C2.262012,4.14357651 1.7081626,5.149797 1.313891,6.2941433 C0.9196194,7.4384896 0.7412611,8.661738 0.7788108,9.9639252 L0.7788108,19.02 L8.7768516,19.02 L8.7768516,19.02 Z M20.7739129,19.02 L20.7739129,9.9047352 L17.0565137,9.9047352 C17.0565137,8.4447071 17.3193575,7.2115938 17.8450529,6.2053583 C18.3707484,5.1991227 19.3470253,4.43952489 20.7739129,3.92654206 L20.7739129,0.02 C19.609873,0.17784087 18.530336,0.54284241 17.5352696,1.11501558 C16.5402032,1.68718874 15.6859609,2.40732692 14.9725171,3.27545171 C14.2590733,4.14357651 13.7052239,5.149797 13.3109523,6.2941433 C12.9166807,7.4384896 12.7383224,8.661738 12.7758721,9.9639252 L12.7758721,19.02 L20.7739129,19.02 L20.7739129,19.02 Z" id="Shape" fill="#000000" sketch:type="MSShapeGroup"></path>
    </g>
</svg>